<svg xmlns="http://www.w3.org/2000/svg" width="52" height="59" viewBox="0 0 52 59" fill="none">
<path d="M26.7699 1.02979C27.9199 1.34979 28.73 2.13996 29.54 2.95996C31.54 4.94996 33.55 6.92988 35.59 8.87988C35.8 9.08988 36.17 9.22998 36.46 9.22998C38.77 9.25998 41.09 9.24 43.4 9.25C45.81 9.26 47.31 10.7599 47.32 13.1499C47.32 13.7099 47.33 14.2798 47.32 14.8398C47.31 15.3898 47 15.7202 46.52 15.7402C46.0299 15.7602 45.66 15.4101 45.64 14.8501C45.62 14.2501 45.64 13.65 45.63 13.04C45.62 11.72 44.84 10.9402 43.52 10.9302C38.95 10.9202 34.38 10.9302 29.81 10.9302C22.85 10.9302 15.89 10.9302 8.92995 10.9302C7.25995 10.9302 6.54995 11.6298 6.54995 13.2798C6.54995 17.8498 6.54997 22.4202 6.53997 26.9902C6.53997 27.3602 6.63996 27.6199 6.90996 27.8799C11.8 32.7499 16.69 37.6298 21.57 42.5098C21.85 42.7898 22.05 42.8201 22.38 42.6201C23.04 42.2301 23.72 41.8598 24.4 41.5098C25.49 40.9498 26.6 40.9202 27.7 41.4702C28.41 41.8202 29.1 42.2001 29.78 42.6001C30.14 42.8201 30.35 42.78 30.64 42.48C32.78 40.31 34.95 38.1698 37.1 36.0098C39.82 33.2998 42.53 30.5899 45.25 27.8799C45.53 27.6099 45.63 27.3299 45.63 26.9399C45.61 24.2699 45.62 21.6002 45.62 18.9302C45.62 18.7402 45.6 18.5501 45.64 18.3701C45.74 17.9101 46.03 17.6302 46.51 17.6602C46.99 17.6902 47.27 17.9702 47.2999 18.4502C47.32 18.9402 47.27 19.4299 47.32 19.9199C47.35 20.1899 47.46 20.4999 47.64 20.6899C48.57 21.6499 49.53 22.5798 50.49 23.5098C51.34 24.3298 51.74 25.3 51.74 26.48C51.73 35.98 51.74 45.48 51.73 54.98C51.73 57.28 50.19 58.78 47.89 58.79C45.03 58.79 42.17 58.79 39.31 58.79C39.14 58.79 38.9599 58.8098 38.7999 58.7598C38.3699 58.6498 38.12 58.3699 38.14 57.8999C38.16 57.4599 38.41 57.2099 38.82 57.1099C39 57.0699 39.19 57.0898 39.38 57.0898C42.24 57.0898 45.1 57.0898 47.96 57.0898C48.99 57.0898 49.63 56.6201 49.96 55.6201C49.68 55.4601 49.39 55.2999 49.1 55.1299C41.89 51.1599 34.67 47.2102 27.47 43.2202C26.49 42.6802 25.66 42.6802 24.67 43.2202C17.37 47.2602 10.06 51.27 2.74996 55.29C2.56996 55.39 2.38996 55.4898 2.21996 55.5898C2.35996 56.4198 3.01998 56.9998 3.88998 57.0698C4.10998 57.0898 4.33997 57.0801 4.56997 57.0801C14.65 57.0801 24.74 57.0801 34.82 57.0801C35.73 57.0801 36.14 57.3499 36.12 57.9399C36.11 58.5199 35.72 58.77 34.84 58.77C24.68 58.77 14.52 58.77 4.36996 58.77C1.90996 58.77 0.419974 57.2901 0.419974 54.8501C0.409974 49.8801 0.419974 44.9202 0.419974 39.9502C0.419974 39.7802 0.419973 39.6099 0.449973 39.4399C0.529973 39.0399 0.779953 38.8098 1.17995 38.7798C1.60995 38.7398 1.91997 38.9301 2.03997 39.3501C2.10997 39.5801 2.10995 39.8301 2.10995 40.0801C2.10995 44.3701 2.10995 48.6602 2.10995 52.9502C2.10995 53.1702 2.10995 53.39 2.10995 53.71C8.22995 50.35 14.25 47.0398 20.19 43.7798C14.22 37.7698 8.23996 31.7499 2.18996 25.6699C2.15996 25.9999 2.10995 26.3001 2.10995 26.6001C2.09995 29.5501 2.10995 32.51 2.10995 35.46C2.10995 36.36 1.82997 36.7798 1.22997 36.7598C0.659972 36.7398 0.419974 36.36 0.419974 35.46C0.419974 32.51 0.439964 29.5501 0.409964 26.6001C0.399964 25.3101 0.81997 24.2701 1.75997 23.3901C2.68997 22.5201 3.59995 21.6199 4.48995 20.6899C4.67995 20.4899 4.81995 20.1501 4.82995 19.8701C4.85995 17.6101 4.83997 15.3601 4.84997 13.1001C4.84997 10.7101 6.35995 9.2002 8.76995 9.2002C11.0599 9.1902 13.36 9.18996 15.65 9.20996C16.06 9.20996 16.35 9.10006 16.64 8.81006C18.64 6.82006 20.67 4.86012 22.67 2.87012C23.47 2.07012 24.28 1.29998 25.41 0.97998C25.87 1.02998 26.3199 1.02979 26.7699 1.02979ZM49.99 25.73C43.96 31.8 37.98 37.8201 32 43.8301C37.91 47.0801 43.94 50.39 49.99 53.71C49.99 44.34 49.99 35.05 49.99 25.73ZM18.75 9.2002C23.68 9.2002 28.52 9.2002 33.44 9.2002C33.31 9.06019 33.24 8.97014 33.17 8.89014C31.32 7.07014 29.47 5.24994 27.62 3.43994C26.62 2.45994 25.57 2.46996 24.56 3.45996C22.76 5.21996 20.97 6.99 19.17 8.75C19.04 8.88 18.92 9.0202 18.75 9.2002ZM4.81997 25.73C4.81997 24.75 4.81997 23.8399 4.81997 22.9399C4.33997 23.4099 3.86996 23.8698 3.40996 24.3198C3.85996 24.7598 4.30997 25.22 4.81997 25.73ZM47.3599 25.6499C47.8399 25.1899 48.32 24.7399 48.66 24.4199C48.21 23.9399 47.7599 23.4698 47.3599 23.0498C47.3599 23.8598 47.3599 24.7699 47.3599 25.6499Z" fill="white"/>
<path d="M28.1899 27.9598C27.3399 28.6998 26.3999 29.13 25.2799 28.97C23.9699 28.7801 23.04 28.02 22.42 26.89C21.59 25.37 21.47 23.77 22.14 22.16C23.12 19.81 25.3999 19.0398 27.8699 20.2098C27.8899 20.0798 27.9099 19.9597 27.9299 19.8397C28.0299 19.2997 28.3799 19.0097 28.8599 19.0697C29.3699 19.1297 29.6099 19.4598 29.6099 19.9598C29.6099 20.7698 29.6099 21.58 29.5999 22.39C29.5999 23.74 29.5899 25.1 29.5899 26.45C29.5899 27.58 30.3699 28.05 31.3099 27.43C31.7399 27.15 32.1099 26.68 32.3199 26.2C34.1599 21.92 30.9199 18.3297 27.6299 17.6097C23.8999 16.7897 20.0799 19.2896 19.4399 23.0096C18.7599 26.9496 21.3899 30.5699 25.2999 31.0599C25.5099 31.0899 25.71 31.1097 25.92 31.1297C26.48 31.1997 26.8199 31.5596 26.7699 32.0496C26.7199 32.5396 26.3299 32.8499 25.7699 32.8099C24.4199 32.7299 23.1399 32.3698 21.9599 31.7098C18.6599 29.8498 16.9999 26.0797 17.8499 22.3797C18.6799 18.7597 21.8599 16.0099 25.4599 15.7899C29.4099 15.5499 32.8499 17.7397 34.1599 21.3597C34.9199 23.4697 34.6199 25.5198 33.6099 27.4598C33.0399 28.5498 32.0899 29.1999 30.8299 29.3499C29.6399 29.4899 28.7999 28.9598 28.1899 27.9598ZM27.9699 24.18C27.8599 23.69 27.8099 23.1798 27.6299 22.7098C27.3699 21.9898 26.8799 21.4499 26.0699 21.3299C25.2199 21.2099 24.5699 21.5598 24.0599 22.2098C23.0999 23.4298 23.2399 25.58 24.3399 26.68C25.2299 27.57 26.39 27.4996 27.17 26.5096C27.7 25.8296 27.8999 25.04 27.9699 24.18Z" fill="white"/>
</svg>
