<svg xmlns="http://www.w3.org/2000/svg" width="21" height="27" viewBox="0 0 21 27" fill="none">
	<path
		d="M13.3199 19.3799C12.5399 19.8099 11.7999 20.3001 11.1099 20.8401C10.8699 21.0301 10.64 21.2199 10.41 21.4299C10.98 21.9399 11.5099 22.4801 11.9999 23.0701C12.4099 22.7101 12.85 22.3701 13.31 22.0601C14 21.5901 14.74 21.1801 15.52 20.8501C17.1 20.1701 18.84 19.79 20.67 19.77V17.48C18.01 17.5 15.4999 18.1899 13.3199 19.3799ZM8.81989 23.0701C8.05989 23.9801 7.39992 24.97 6.85992 26.04H9.47992C9.76992 25.58 10.08 25.15 10.41 24.73C9.92997 24.13 9.39989 23.5701 8.81989 23.0701Z"
		fill="#389579" />
	<path
		d="M12.0099 23.0701C11.4299 23.5801 10.9 24.13 10.42 24.73C10.76 25.15 11.0699 25.58 11.3499 26.04H13.9699C13.4299 24.97 12.7699 23.9801 12.0099 23.0701ZM9.7099 20.8401C9.0199 20.2901 8.27994 19.8099 7.49994 19.3799C5.30994 18.1799 2.80996 17.5 0.149963 17.48V19.77C1.97996 19.78 3.71999 20.1701 5.29999 20.8501C6.07999 21.1901 6.80995 21.5901 7.50995 22.0601C7.96995 22.3701 8.40989 22.7101 8.81989 23.0701C9.30989 22.4901 9.83997 21.9399 10.41 21.4299C10.18 21.2299 9.9499 21.0301 9.7099 20.8401Z"
		fill="#389579" />
	<path
		d="M12.0099 23.0701C11.4299 23.5801 10.9 24.13 10.42 24.73C9.93998 24.13 9.3999 23.5801 8.8299 23.0701C9.3199 22.4901 9.84998 21.9399 10.42 21.4299C10.98 21.9399 11.5099 22.4801 12.0099 23.0701Z"
		fill="#389579" />
	<path
		d="M10.4999 20.04C10.3899 20.04 10.29 20.0199 10.18 19.9899C9.79999 19.8599 9.51993 19.5201 9.48993 19.1101L9.47992 19.01C9.46992 18.9 9.4599 18.8199 9.4599 18.7299V17.8999C9.4599 14.0099 9.45991 10.75 9.46991 6.77998C9.46991 6.26998 9.65993 5.76006 9.98993 5.36006C11.6499 3.36006 13.9199 1.98998 16.7399 1.27998C17.3299 1.12998 17.9199 1.0399 18.4899 0.949902C18.7199 0.909902 18.95 0.880039 19.18 0.840039C19.32 0.820039 19.44 0.81001 19.53 0.81001C19.56 0.81001 19.5799 0.81001 19.6099 0.81001C19.8899 0.80001 20.1599 0.900039 20.3599 1.09004C20.5599 1.28004 20.67 1.55002 20.67 1.82002V15.59C20.67 16.11 20.2699 16.55 19.7499 16.6C16.3899 16.92 13.4899 17.1899 11.2599 19.6999C11.0599 19.9199 10.7899 20.04 10.4999 20.04ZM18.64 2.97993C18.15 3.05993 17.6799 3.12995 17.2299 3.24995C14.8099 3.85995 12.95 4.97987 11.54 6.66987C11.51 6.70987 11.4899 6.75 11.4899 6.8C11.4799 10.39 11.4799 13.39 11.4799 16.81C13.6499 15.31 16.1499 14.9299 18.6299 14.6799V2.97993H18.64Z"
		fill="#389579" />
	<path
		d="M10.3199 20.04C10.0399 20.04 9.76 19.9199 9.56 19.6999C7.33 17.1899 4.42988 16.92 1.06989 16.6C0.549885 16.55 0.149963 16.11 0.149963 15.59V1.82002C0.149963 1.54002 0.2599 1.28004 0.4599 1.09004C0.6599 0.900039 0.9299 0.80001 1.2099 0.81001C1.2399 0.81001 1.26998 0.81001 1.28998 0.81001C1.37998 0.81001 1.49995 0.810039 1.63995 0.840039C1.86995 0.880039 2.0999 0.919902 2.3299 0.949902C2.89989 1.0399 3.4899 1.12998 4.0799 1.27998C6.88989 1.98998 9.15989 3.37006 10.8299 5.36006C11.1599 5.76006 11.3499 6.26998 11.3499 6.77998C11.3599 10.73 11.3599 13.97 11.3599 17.84V18.7299C11.3599 18.8199 11.3499 18.9 11.3399 19.01L11.3299 19.1101C11.2999 19.5101 11.02 19.8599 10.64 19.9899C10.54 20.0199 10.4299 20.04 10.3199 20.04ZM2.17999 14.6699C4.65999 14.9199 7.14989 15.3 9.3299 16.8C9.3299 13.38 9.32989 10.38 9.31989 6.78999C9.31989 6.74999 9.29996 6.69986 9.26996 6.65986C7.86996 4.96986 6.0099 3.85994 3.5899 3.23994C3.1399 3.12994 2.66999 3.04992 2.17999 2.96992V14.6699Z"
		fill="#389579" />
</svg>
