<?xml version="1.0" encoding="UTF-8"?>
<svg id="Layer_1" data-name="Layer 1" xmlns="http://www.w3.org/2000/svg" viewBox="0 0 512 512">
  <defs>
    <style>
      .cls-1 {
        fill: #F9BC61;
      }

      .cls-2 {
        fill: #F9BC61;
      }
    </style>
  </defs>
  <path class="cls-1" d="M256,512c141.38,0,256-114.62,256-256S397.38,0,256,0,0,114.62,0,256s114.62,256,256,256Zm0-469.33c117.82,0,213.33,95.52,213.33,213.33s-95.51,213.33-213.33,213.33S42.67,373.82,42.67,256,138.18,42.67,256,42.67Z"/>
  <path class="cls-2" d="M164.42,313.75l91.58-91.58,91.58,91.58c8.33,8.33,21.84,8.33,30.17,0,8.33-8.33,8.33-21.84,0-30.17l-106.67-106.67c-8.33-8.33-21.84-8.33-30.17,0l-106.67,106.67c-8.33,8.33-8.33,21.84,0,30.17,8.33,8.33,21.84,8.33,30.17,0Z"/>
</svg>
