<svg xmlns="http://www.w3.org/2000/svg" width="57" height="58" viewBox="0 0 57 58" fill="none">
<path d="M0.329987 57.2596C0.259987 57.1896 0.179985 57.1099 0.109985 57.0399C0.179985 56.8699 0.259998 56.7099 0.309998 56.5399C1.53 52.1299 2.74 47.7097 3.97 43.2997C4.08 42.8897 4.04 42.5798 3.84 42.2098C0.179996 35.4498 -0.620007 28.3298 1.42999 20.9398C5.17999 7.40982 18.88 -0.939943 32.53 0.930057C38.95 1.81006 44.5 4.54975 48.92 9.35975C56.09 17.1697 58.45 26.3001 55.59 36.4701C50.78 53.5201 31.21 61.77 15.49 53.6C15.25 53.47 14.89 53.4299 14.62 53.4999C11.29 54.3399 7.96 55.21 4.63 56.08C3.19 56.46 1.75999 56.8696 0.329987 57.2596ZM6.91 50.4701C7.18 50.4101 7.32999 50.3797 7.48999 50.3397C10.05 49.6797 12.62 49.0197 15.18 48.3397C15.58 48.2297 15.89 48.2801 16.26 48.4901C21.81 51.8101 27.74 52.8099 34.05 51.2899C46.25 48.3499 53.91 36.5399 51.6 24.2899C49.35 12.3599 38.03 4.02984 25.93 5.45984C18.92 6.28984 13.34 9.6198 9.32999 15.4198C5.81999 20.4898 4.50001 26.1296 5.42001 32.2596C5.92001 35.5896 7.16 38.6298 9 41.4398C9.23 41.7798 9.27001 42.0798 9.14001 42.4598C8.93001 43.1298 8.76001 43.7999 8.57001 44.4799C8.02001 46.4399 7.48 48.4001 6.91 50.4701Z" fill="white"/>
<path d="M35.97 42.0499C34.06 42.1299 32.44 41.3902 30.77 40.8102C26.02 39.1702 22.34 36.0799 19.21 32.2599C17.7 30.4199 16.19 28.59 15.2 26.4C14.16 24.1 13.73 21.74 14.82 19.36C15.29 18.34 16.01 17.4299 16.68 16.5099C17.09 15.9599 17.73 15.7001 18.42 15.6701C19.04 15.6501 19.67 15.6601 20.3 15.6901C20.85 15.7201 21.13 16.1302 21.33 16.5802C21.78 17.5902 22.2 18.6103 22.62 19.6203C22.96 20.4303 23.28 21.2602 23.65 22.0602C23.91 22.6202 23.9 23.1303 23.54 23.6203C23.02 24.3303 22.49 25.0404 21.93 25.7204C21.35 26.4404 21.32 26.6501 21.8 27.4401C24.05 31.1701 27.14 33.91 31.2 35.5499C32.07 35.9 32.36 35.85 32.97 35.11C33.64 34.3 34.3 33.4903 34.95 32.6603C35.38 32.1103 35.66 31.9704 36.33 32.2204C37.26 32.5704 38.15 33.0003 39.06 33.4103C39.68 33.6903 40.27 34.0302 40.89 34.3102C41.33 34.5102 41.81 34.6199 42.26 34.7999C42.64 34.9499 42.83 35.2503 42.82 35.6603C42.79 37.5503 42.39 39.2703 40.71 40.4503C39.26 41.4903 37.7 42.16 35.97 42.0499Z" fill="white"/>
</svg>
