<?xml version="1.0" encoding="utf-8"?>
<!-- Generator: Adobe Illustrator 27.0.1, SVG Export Plug-In . SVG Version: 6.00 Build 0)  -->
<svg version="1.1" id="Layer_1" xmlns="http://www.w3.org/2000/svg" xmlns:xlink="http://www.w3.org/1999/xlink" x="0px" y="0px"
	 viewBox="0 0 124.67 72.46" style="enable-background:new 0 0 124.67 72.46;" xml:space="preserve">
<style type="text/css">
	.st0{display:none;}
	.st1{fill:#389579;}
</style>
<g id="Layer_2_00000023275270115324100620000007317750314252608644_" class="st0">
</g>
<g>
	<g>
		<path class="st1" d="M117.07,72.17L21.5,56.49c-2.67-0.44-5.01-2.01-6.43-4.3L1.41,30.13c-2.55-4.12-1.56-9.44,2.31-12.37
			L24.69,1.89c2.03-1.54,4.64-2.18,7.15-1.77l92.83,15.23l-5.27,6.54l3.63,4.55l-5.19,3.39l3.28,5.43l-5.41,3.74l4.07,4.59
			l-5.03,3.92l4.12,4.62l-5.7,3.94l4.38,4.56l-5.54,3.81L117.07,72.17z M31.07,4.82c-1.23-0.2-2.51,0.11-3.51,0.87L6.59,21.56
			c-1.9,1.44-2.38,4.05-1.13,6.07l13.65,22.05c0.7,1.13,1.85,1.9,3.16,2.11l84.87,13.92l-1.67-2.54l4.77-3.28l-4.37-4.56l5.86-4.05
			l-3.92-4.39l5.04-3.94l-4.27-4.82l6.15-4.25l-3.34-5.53l4.65-3.04l-2.75-3.45l2.54-3.15L31.07,4.82z"/>
		<g>
			<path class="st1" d="M42.09,14.49c2.9-0.31,5.9-0.43,9-0.36l0.43-2.59c-3.59-0.02-6.59,0.13-9.01,0.46L42.09,14.49z"/>
			<path class="st1" d="M41.49,18.17c2.9-0.31,5.9-0.43,9-0.36l0.42-2.59c-3.59-0.02-6.59,0.13-9.01,0.46L41.49,18.17z"/>
			<polygon class="st1" points="48.57,23.24 45.61,19.7 42.24,22.56 45.23,25.98 			"/>
			<path class="st1" d="M44.88,27.5c0.16,2.35,0.09,4.74-0.22,7.16c-0.97,0.06-2.16-0.02-3.54-0.25l-0.26-0.04l-7.36-1.21
				l-0.35-0.06c-1.79-0.29-2.52-1.44-2.19-3.45l2.38-14.5l-5.06-0.4l-2.49,15.17c-0.4,2.45-0.21,4.42,0.56,5.89
				c0.78,1.47,2.34,2.4,4.69,2.79l1.54,0.25l7.36,1.21l0.16,0.03c1.3,0.21,2.65,0.27,4.04,0.17c1.4-0.1,2.53-0.3,3.38-0.59
				c0.76-1.45,1.35-3.43,1.76-5.92c0.38-2.28,0.51-4.44,0.41-6.47L44.88,27.5z"/>
			<polygon class="st1" points="65.52,48.76 68.5,52.18 71.84,49.44 68.88,45.89 			"/>
			<path class="st1" d="M98.97,36.95c-0.96-1.64-2.38-2.61-4.25-2.92c-1.71-0.28-3.12-0.07-4.24,0.62
				c-1.12,0.69-2.22,1.76-3.29,3.21c-0.12,0.18-0.3,0.44-0.54,0.78c-0.24,0.34-0.43,0.6-0.55,0.78c-0.13,0.18-0.29,0.4-0.5,0.66
				c-0.21,0.26-0.39,0.46-0.54,0.58c-0.15,0.13-0.33,0.26-0.53,0.41c-0.2,0.14-0.4,0.23-0.62,0.26s-0.43,0.03-0.64-0.01l-0.61-0.1
				l-0.45-0.07c-1.2-0.2-2.12-0.54-2.77-1.05c-0.65-0.5-1.56-1.53-2.73-3.08c-0.11-0.13-0.38-0.49-0.82-1.09
				c-0.44-0.6-0.73-0.99-0.88-1.16c-0.15-0.18-0.42-0.52-0.83-1.04c-0.41-0.52-0.71-0.87-0.89-1.07c-0.19-0.2-0.47-0.49-0.84-0.88
				c-0.38-0.39-0.69-0.68-0.94-0.86c-0.25-0.18-0.56-0.39-0.9-0.62c-0.35-0.23-0.68-0.41-1.01-0.53c-0.33-0.12-0.66-0.21-0.98-0.26
				c-1.3-0.21-2.49,0.02-3.55,0.71s-2.08,1.91-3.05,3.66l3.25,1.85c0.44-0.54,0.82-0.89,1.14-1.06c0.32-0.17,0.71-0.21,1.16-0.14
				c0.96,0.16,2.47,1.64,4.53,4.46c-2.31-0.05-5.73-0.45-10.26-1.19l-1.47-0.24L60,37.5c-1.79-0.29-2.52-1.44-2.19-3.45l2.38-14.5
				l-5.06-0.4l-2.49,15.17c-0.4,2.45-0.21,4.42,0.56,5.89c0.78,1.47,2.34,2.4,4.69,2.79l1.54,0.25l0.48,0.08
				c5.55,0.91,10.83,1.11,15.84,0.59c0.78,0.85,1.58,1.5,2.39,1.94c0.82,0.44,1.8,0.76,2.95,0.94l0.64,0.1l0.26,0.04
				c1.39,0.23,2.66-0.03,3.81-0.79c1.59,1.23,3.51,2.02,5.75,2.39c2.5,0.41,4.5,0.47,6.02,0.17c1.16-1.74,1.94-3.79,2.32-6.16
				C100.23,40.46,99.92,38.58,98.97,36.95z M95.43,42.46c-0.08,0.49-0.17,0.91-0.27,1.27c-0.65-0.04-1.28-0.11-1.87-0.21
				c-1.47-0.24-2.77-0.63-3.88-1.16c1.07-1.47,1.88-2.4,2.43-2.8s1.17-0.55,1.88-0.43c0.72,0.12,1.23,0.5,1.51,1.13
				S95.57,41.63,95.43,42.46z"/>
		</g>
	</g>
	<circle class="st1" cx="14.4" cy="26.09" r="2.89"/>
</g>
</svg>
